<svg xmlns="http://www.w3.org/2000/svg" xmlns:xlink="http://www.w3.org/1999/xlink" width="98" height="100" viewBox="0 0 98 100"><defs><style>.a{fill:#a8441d;}.b{fill:url(#c);}.c{fill:url(#d);}.d,.e{fill:none;stroke-linecap:round;stroke-linejoin:round;}.d{stroke:#a8441d;stroke-width:15px;}.e{stroke:#fff;stroke-width:6px;}.f{filter:url(#a);}</style><filter id="a" x="0" y="0" width="98" height="100" filterUnits="userSpaceOnUse"><feOffset dy="4" input="SourceAlpha"/><feGaussianBlur stdDeviation="3" result="b"/><feFlood flood-opacity="0.502"/><feComposite operator="in" in2="b"/><feComposite in="SourceGraphic"/></filter><linearGradient id="c" x1="0.5" x2="0.5" y2="1" gradientUnits="objectBoundingBox"><stop offset="0" stop-color="#feda39"/><stop offset="1" stop-color="#feab29"/></linearGradient><linearGradient id="d" x1="0.5" x2="0.5" y2="1" gradientUnits="objectBoundingBox"><stop offset="0" stop-color="#fcc02c"/><stop offset="1" stop-color="#f79c26"/></linearGradient></defs><g transform="translate(-279 -287)"><g class="f" transform="matrix(1, 0, 0, 1, 279, 287)"><ellipse class="a" cx="40" cy="41" rx="40" ry="41" transform="translate(9 5)"/></g><ellipse class="b" cx="40" cy="40.5" rx="40" ry="40.5" transform="translate(288 290)"/><circle class="c" cx="31" cy="31" r="31" transform="translate(297 299)"/><g transform="translate(316.136 319.526)"><g transform="translate(0 0)"><path class="d" d="M18,34.41,29.205,23.205,18,12" transform="translate(-4.862 -12)"/><path class="d" d="M12,18H36.343" transform="translate(-12 -6.795)"/></g><g transform="translate(0 22.41) rotate(-90)"><g transform="translate(22.41 0) rotate(90)"><path class="e" d="M0,22.41,11.205,11.205,0,0" transform="translate(13.138 0)"/><path class="e" d="M0,0H24.343" transform="translate(0 11.205)"/></g></g></g></g></svg>