<svg xmlns="http://www.w3.org/2000/svg" xmlns:xlink="http://www.w3.org/1999/xlink" width="99" height="100" viewBox="0 0 99 100"><defs><style>.a{fill:#436426;}.b{fill:url(#c);}.c{fill:url(#d);}.d,.e{fill:none;stroke-linecap:round;stroke-linejoin:round;}.d{stroke:#436426;stroke-width:15px;}.e{stroke:#fff;stroke-width:6px;}.f{filter:url(#a);}</style><filter id="a" x="0" y="0" width="99" height="100" filterUnits="userSpaceOnUse"><feOffset dy="4" input="SourceAlpha"/><feGaussianBlur stdDeviation="3" result="b"/><feFlood flood-opacity="0.502"/><feComposite operator="in" in2="b"/><feComposite in="SourceGraphic"/></filter><linearGradient id="c" x1="0.5" x2="0.5" y2="1" gradientUnits="objectBoundingBox"><stop offset="0" stop-color="#e1fd4e"/><stop offset="1" stop-color="#7cb832"/></linearGradient><linearGradient id="d" x1="0.5" x2="0.5" y2="1" gradientUnits="objectBoundingBox"><stop offset="0" stop-color="#c0eb3a"/><stop offset="1" stop-color="#72ae21"/></linearGradient></defs><g transform="translate(-165 -287)"><g class="f" transform="matrix(1, 0, 0, 1, 165, 287)"><ellipse class="a" cx="40.5" cy="41" rx="40.5" ry="41" transform="translate(9 5)"/></g><circle class="b" cx="40.5" cy="40.5" r="40.5" transform="translate(174 290)"/><circle class="c" cx="31" cy="31" r="31" transform="translate(183 299)"/><g transform="translate(203.134 318.559)"><g transform="translate(22.41 0) rotate(90)"><path class="d" d="M0,22.41,11.205,11.205,0,0" transform="translate(13.138 0)"/><path class="d" d="M0,0H24.343" transform="translate(0 11.205)"/></g><g transform="translate(0)"><g transform="translate(22.41 0) rotate(90)"><path class="e" d="M0,22.41,11.205,11.205,0,0" transform="translate(13.138 0)"/><path class="e" d="M0,0H24.343" transform="translate(0 11.205)"/></g></g></g></g></svg>